<svg xmlns="http://www.w3.org/2000/svg" viewBox="0 0 40 40 id="icon-find">
	<g id="banner">
		<g id="menu">
			<path d="M36.63 31.97C37.23 32.56 37.6 33.39 37.6 34.3C37.6 36.12 36.12 37.6 34.3 37.6C33.39 37.6 32.56 37.23 31.97 36.63L31.97 36.63L22.29 26.96C20.33 28.12 18.05 28.8 15.6 28.8C8.31 28.8 2.4 22.89 2.4 15.6C2.4 8.31 8.31 2.4 15.6 2.4C22.89 2.4 28.8 8.31 28.8 15.6C28.8 18.05 28.12 20.33 26.96 22.29L36.63 31.97L36.63 31.97ZM15.6 5.7C10.13 5.7 5.7 10.13 5.7 15.6C5.7 21.07 10.13 25.5 15.6 25.5C21.07 25.5 25.5 21.07 25.5 15.6C25.5 10.13 21.07 5.7 15.6 5.7Z" />
		</g>
	</g>
</svg>